<svg xmlns="http://www.w3.org/2000/svg" viewBox="0 0 320 180" width="320" height="180">
<rect width="320" height="180" fill="#0d0d12"/>
<defs>
  <radialGradient id="g1" cx="50%" cy="0%" r="80%"><stop offset="0%" stop-color="rgba(201,168,76,0.22)"/><stop offset="100%" stop-color="rgba(201,168,76,0)"/></radialGradient>
</defs>
<rect width="320" height="180" fill="url(#g1)"/>
<line x1="0" y1="0" x2="0" y2="180" stroke="rgba(201,168,76,0.18)" stroke-width="0.5"/><line x1="16" y1="0" x2="16" y2="180" stroke="rgba(201,168,76,0.18)" stroke-width="0.5"/><line x1="32" y1="0" x2="32" y2="180" stroke="rgba(201,168,76,0.18)" stroke-width="0.5"/><line x1="48" y1="0" x2="48" y2="180" stroke="rgba(201,168,76,0.18)" stroke-width="0.5"/><line x1="64" y1="0" x2="64" y2="180" stroke="rgba(201,168,76,0.18)" stroke-width="0.5"/><line x1="80" y1="0" x2="80" y2="180" stroke="rgba(201,168,76,0.18)" stroke-width="0.5"/><line x1="96" y1="0" x2="96" y2="180" stroke="rgba(201,168,76,0.18)" stroke-width="0.5"/><line x1="112" y1="0" x2="112" y2="180" stroke="rgba(201,168,76,0.18)" stroke-width="0.5"/><line x1="128" y1="0" x2="128" y2="180" stroke="rgba(201,168,76,0.18)" stroke-width="0.5"/><line x1="144" y1="0" x2="144" y2="180" stroke="rgba(201,168,76,0.18)" stroke-width="0.5"/><line x1="160" y1="0" x2="160" y2="180" stroke="rgba(201,168,76,0.18)" stroke-width="0.5"/><line x1="176" y1="0" x2="176" y2="180" stroke="rgba(201,168,76,0.18)" stroke-width="0.5"/><line x1="192" y1="0" x2="192" y2="180" stroke="rgba(201,168,76,0.18)" stroke-width="0.5"/><line x1="208" y1="0" x2="208" y2="180" stroke="rgba(201,168,76,0.18)" stroke-width="0.5"/><line x1="224" y1="0" x2="224" y2="180" stroke="rgba(201,168,76,0.18)" stroke-width="0.5"/><line x1="240" y1="0" x2="240" y2="180" stroke="rgba(201,168,76,0.18)" stroke-width="0.5"/><line x1="256" y1="0" x2="256" y2="180" stroke="rgba(201,168,76,0.18)" stroke-width="0.5"/><line x1="272" y1="0" x2="272" y2="180" stroke="rgba(201,168,76,0.18)" stroke-width="0.5"/><line x1="288" y1="0" x2="288" y2="180" stroke="rgba(201,168,76,0.18)" stroke-width="0.5"/><line x1="304" y1="0" x2="304" y2="180" stroke="rgba(201,168,76,0.18)" stroke-width="0.5"/><line x1="320" y1="0" x2="320" y2="180" stroke="rgba(201,168,76,0.18)" stroke-width="0.5"/><line x1="0" y1="0" x2="320" y2="0" stroke="rgba(201,168,76,0.18)" stroke-width="0.5"/><line x1="0" y1="16" x2="320" y2="16" stroke="rgba(201,168,76,0.18)" stroke-width="0.5"/><line x1="0" y1="32" x2="320" y2="32" stroke="rgba(201,168,76,0.18)" stroke-width="0.5"/><line x1="0" y1="48" x2="320" y2="48" stroke="rgba(201,168,76,0.18)" stroke-width="0.5"/><line x1="0" y1="64" x2="320" y2="64" stroke="rgba(201,168,76,0.18)" stroke-width="0.5"/><line x1="0" y1="80" x2="320" y2="80" stroke="rgba(201,168,76,0.18)" stroke-width="0.5"/><line x1="0" y1="96" x2="320" y2="96" stroke="rgba(201,168,76,0.18)" stroke-width="0.5"/><line x1="0" y1="112" x2="320" y2="112" stroke="rgba(201,168,76,0.18)" stroke-width="0.5"/><line x1="0" y1="128" x2="320" y2="128" stroke="rgba(201,168,76,0.18)" stroke-width="0.5"/><line x1="0" y1="144" x2="320" y2="144" stroke="rgba(201,168,76,0.18)" stroke-width="0.5"/><line x1="0" y1="160" x2="320" y2="160" stroke="rgba(201,168,76,0.18)" stroke-width="0.5"/><line x1="0" y1="176" x2="320" y2="176" stroke="rgba(201,168,76,0.18)" stroke-width="0.5"/>
<circle cx="80" cy="60" r="30" fill="none" stroke="rgba(201,168,76,0.4)" stroke-width="1"/><circle cx="80" cy="60" r="50" fill="none" stroke="rgba(201,168,76,0.2)" stroke-width="0.6"/><path d="M 200 30 L 240 60 L 200 90 L 160 60 Z" fill="none" stroke="rgba(201,168,76,0.4)" stroke-width="1"/><path d="M 50 130 Q 120 100 200 130 T 320 140" fill="none" stroke="rgba(201,168,76,0.5)" stroke-width="0.8"/><line x1="0" y1="160" x2="320" y2="160" stroke="rgba(201,168,76,0.3)" stroke-width="1.5"/>
</svg>