<svg xmlns="http://www.w3.org/2000/svg" viewBox="0 0 320 180" width="320" height="180">
<rect width="320" height="180" fill="#07070a"/>
<defs>
  <radialGradient id="g2" cx="20%" cy="100%" r="100%"><stop offset="0%" stop-color="rgba(201,168,76,0.18)"/><stop offset="100%" stop-color="rgba(201,168,76,0)"/></radialGradient>
</defs>
<rect width="320" height="180" fill="url(#g2)"/>
<line x1="57" y1="6" x2="57" y2="41" stroke="rgba(201,168,76,0.35)" stroke-width="1"/><circle cx="57" cy="6" r="2" fill="rgba(201,168,76,0.6)"/><circle cx="57" cy="41" r="2" fill="rgba(201,168,76,0.6)"/><line x1="114" y1="35" x2="177" y2="35" stroke="rgba(201,168,76,0.35)" stroke-width="1"/><circle cx="114" cy="35" r="2" fill="rgba(201,168,76,0.6)"/><circle cx="177" cy="35" r="2" fill="rgba(201,168,76,0.6)"/><line x1="279" y1="22" x2="279" y2="44" stroke="rgba(201,168,76,0.35)" stroke-width="1"/><circle cx="279" cy="22" r="2" fill="rgba(201,168,76,0.6)"/><circle cx="279" cy="44" r="2" fill="rgba(201,168,76,0.6)"/><line x1="15" y1="23" x2="49" y2="23" stroke="rgba(201,168,76,0.35)" stroke-width="1"/><circle cx="15" cy="23" r="2" fill="rgba(201,168,76,0.6)"/><circle cx="49" cy="23" r="2" fill="rgba(201,168,76,0.6)"/><line x1="258" y1="154" x2="313" y2="154" stroke="rgba(201,168,76,0.35)" stroke-width="1"/><circle cx="258" cy="154" r="2" fill="rgba(201,168,76,0.6)"/><circle cx="313" cy="154" r="2" fill="rgba(201,168,76,0.6)"/><line x1="101" y1="166" x2="101" y2="200" stroke="rgba(201,168,76,0.35)" stroke-width="1"/><circle cx="101" cy="166" r="2" fill="rgba(201,168,76,0.6)"/><circle cx="101" cy="200" r="2" fill="rgba(201,168,76,0.6)"/><line x1="229" y1="150" x2="229" y2="221" stroke="rgba(201,168,76,0.35)" stroke-width="1"/><circle cx="229" cy="150" r="2" fill="rgba(201,168,76,0.6)"/><circle cx="229" cy="221" r="2" fill="rgba(201,168,76,0.6)"/><line x1="3" y1="40" x2="3" y2="81" stroke="rgba(201,168,76,0.35)" stroke-width="1"/><circle cx="3" cy="40" r="2" fill="rgba(201,168,76,0.6)"/><circle cx="3" cy="81" r="2" fill="rgba(201,168,76,0.6)"/><line x1="142" y1="39" x2="210" y2="39" stroke="rgba(201,168,76,0.35)" stroke-width="1"/><circle cx="142" cy="39" r="2" fill="rgba(201,168,76,0.6)"/><circle cx="210" cy="39" r="2" fill="rgba(201,168,76,0.6)"/><line x1="172" y1="26" x2="216" y2="26" stroke="rgba(201,168,76,0.35)" stroke-width="1"/><circle cx="172" cy="26" r="2" fill="rgba(201,168,76,0.6)"/><circle cx="216" cy="26" r="2" fill="rgba(201,168,76,0.6)"/><line x1="49" y1="91" x2="49" y2="149" stroke="rgba(201,168,76,0.35)" stroke-width="1"/><circle cx="49" cy="91" r="2" fill="rgba(201,168,76,0.6)"/><circle cx="49" cy="149" r="2" fill="rgba(201,168,76,0.6)"/><line x1="135" y1="11" x2="135" y2="65" stroke="rgba(201,168,76,0.35)" stroke-width="1"/><circle cx="135" cy="11" r="2" fill="rgba(201,168,76,0.6)"/><circle cx="135" cy="65" r="2" fill="rgba(201,168,76,0.6)"/><line x1="63" y1="96" x2="118" y2="96" stroke="rgba(201,168,76,0.35)" stroke-width="1"/><circle cx="63" cy="96" r="2" fill="rgba(201,168,76,0.6)"/><circle cx="118" cy="96" r="2" fill="rgba(201,168,76,0.6)"/><line x1="150" y1="160" x2="150" y2="216" stroke="rgba(201,168,76,0.35)" stroke-width="1"/><circle cx="150" cy="160" r="2" fill="rgba(201,168,76,0.6)"/><circle cx="150" cy="216" r="2" fill="rgba(201,168,76,0.6)"/><line x1="98" y1="180" x2="120" y2="180" stroke="rgba(201,168,76,0.35)" stroke-width="1"/><circle cx="98" cy="180" r="2" fill="rgba(201,168,76,0.6)"/><circle cx="120" cy="180" r="2" fill="rgba(201,168,76,0.6)"/><line x1="116" y1="74" x2="190" y2="74" stroke="rgba(201,168,76,0.35)" stroke-width="1"/><circle cx="116" cy="74" r="2" fill="rgba(201,168,76,0.6)"/><circle cx="190" cy="74" r="2" fill="rgba(201,168,76,0.6)"/><line x1="119" y1="25" x2="119" y2="62" stroke="rgba(201,168,76,0.35)" stroke-width="1"/><circle cx="119" cy="25" r="2" fill="rgba(201,168,76,0.6)"/><circle cx="119" cy="62" r="2" fill="rgba(201,168,76,0.6)"/><line x1="232" y1="162" x2="232" y2="192" stroke="rgba(201,168,76,0.35)" stroke-width="1"/><circle cx="232" cy="162" r="2" fill="rgba(201,168,76,0.6)"/><circle cx="232" cy="192" r="2" fill="rgba(201,168,76,0.6)"/><line x1="189" y1="90" x2="251" y2="90" stroke="rgba(201,168,76,0.35)" stroke-width="1"/><circle cx="189" cy="90" r="2" fill="rgba(201,168,76,0.6)"/><circle cx="251" cy="90" r="2" fill="rgba(201,168,76,0.6)"/><line x1="136" y1="179" x2="194" y2="179" stroke="rgba(201,168,76,0.35)" stroke-width="1"/><circle cx="136" cy="179" r="2" fill="rgba(201,168,76,0.6)"/><circle cx="194" cy="179" r="2" fill="rgba(201,168,76,0.6)"/><line x1="87" y1="136" x2="117" y2="136" stroke="rgba(201,168,76,0.35)" stroke-width="1"/><circle cx="87" cy="136" r="2" fill="rgba(201,168,76,0.6)"/><circle cx="117" cy="136" r="2" fill="rgba(201,168,76,0.6)"/><line x1="236" y1="97" x2="236" y2="176" stroke="rgba(201,168,76,0.35)" stroke-width="1"/><circle cx="236" cy="97" r="2" fill="rgba(201,168,76,0.6)"/><circle cx="236" cy="176" r="2" fill="rgba(201,168,76,0.6)"/><line x1="285" y1="56" x2="285" y2="129" stroke="rgba(201,168,76,0.35)" stroke-width="1"/><circle cx="285" cy="56" r="2" fill="rgba(201,168,76,0.6)"/><circle cx="285" cy="129" r="2" fill="rgba(201,168,76,0.6)"/><line x1="28" y1="58" x2="99" y2="58" stroke="rgba(201,168,76,0.35)" stroke-width="1"/><circle cx="28" cy="58" r="2" fill="rgba(201,168,76,0.6)"/><circle cx="99" cy="58" r="2" fill="rgba(201,168,76,0.6)"/><line x1="161" y1="102" x2="161" y2="126" stroke="rgba(201,168,76,0.35)" stroke-width="1"/><circle cx="161" cy="102" r="2" fill="rgba(201,168,76,0.6)"/><circle cx="161" cy="126" r="2" fill="rgba(201,168,76,0.6)"/><line x1="108" y1="145" x2="108" y2="178" stroke="rgba(201,168,76,0.35)" stroke-width="1"/><circle cx="108" cy="145" r="2" fill="rgba(201,168,76,0.6)"/><circle cx="108" cy="178" r="2" fill="rgba(201,168,76,0.6)"/><line x1="255" y1="101" x2="255" y2="130" stroke="rgba(201,168,76,0.35)" stroke-width="1"/><circle cx="255" cy="101" r="2" fill="rgba(201,168,76,0.6)"/><circle cx="255" cy="130" r="2" fill="rgba(201,168,76,0.6)"/><line x1="135" y1="35" x2="202" y2="35" stroke="rgba(201,168,76,0.35)" stroke-width="1"/><circle cx="135" cy="35" r="2" fill="rgba(201,168,76,0.6)"/><circle cx="202" cy="35" r="2" fill="rgba(201,168,76,0.6)"/><line x1="287" y1="137" x2="287" y2="204" stroke="rgba(201,168,76,0.35)" stroke-width="1"/><circle cx="287" cy="137" r="2" fill="rgba(201,168,76,0.6)"/><circle cx="287" cy="204" r="2" fill="rgba(201,168,76,0.6)"/><line x1="299" y1="109" x2="299" y2="152" stroke="rgba(201,168,76,0.35)" stroke-width="1"/><circle cx="299" cy="109" r="2" fill="rgba(201,168,76,0.6)"/><circle cx="299" cy="152" r="2" fill="rgba(201,168,76,0.6)"/>
</svg>