<svg xmlns="http://www.w3.org/2000/svg" viewBox="0 0 320 180" width="320" height="180">
<rect width="320" height="180" fill="#0d0d12"/>
<ellipse cx="122" cy="58" rx="80" ry="18" fill="none" stroke="rgba(201,168,76,0.5)" stroke-width="0.7" transform="rotate(9 122 58)"/><ellipse cx="122" cy="58" rx="100" ry="22" fill="none" stroke="rgba(201,168,76,0.38)" stroke-width="0.7" transform="rotate(9 122 58)"/><ellipse cx="122" cy="58" rx="120" ry="27" fill="none" stroke="rgba(201,168,76,0.26)" stroke-width="0.7" transform="rotate(9 122 58)"/><ellipse cx="250" cy="157" rx="42" ry="38" fill="none" stroke="rgba(201,168,76,0.5)" stroke-width="0.7" transform="rotate(74 250 157)"/><ellipse cx="250" cy="157" rx="52" ry="47" fill="none" stroke="rgba(201,168,76,0.38)" stroke-width="0.7" transform="rotate(74 250 157)"/><ellipse cx="250" cy="157" rx="63" ry="57" fill="none" stroke="rgba(201,168,76,0.26)" stroke-width="0.7" transform="rotate(74 250 157)"/><ellipse cx="54" cy="149" rx="57" ry="17" fill="none" stroke="rgba(201,168,76,0.5)" stroke-width="0.7" transform="rotate(11 54 149)"/><ellipse cx="54" cy="149" rx="71" ry="21" fill="none" stroke="rgba(201,168,76,0.38)" stroke-width="0.7" transform="rotate(11 54 149)"/><ellipse cx="54" cy="149" rx="85" ry="25" fill="none" stroke="rgba(201,168,76,0.26)" stroke-width="0.7" transform="rotate(11 54 149)"/><ellipse cx="151" cy="127" rx="38" ry="30" fill="none" stroke="rgba(201,168,76,0.5)" stroke-width="0.7" transform="rotate(11 151 127)"/><ellipse cx="151" cy="127" rx="47" ry="37" fill="none" stroke="rgba(201,168,76,0.38)" stroke-width="0.7" transform="rotate(11 151 127)"/><ellipse cx="151" cy="127" rx="57" ry="45" fill="none" stroke="rgba(201,168,76,0.26)" stroke-width="0.7" transform="rotate(11 151 127)"/><ellipse cx="181" cy="128" rx="37" ry="22" fill="none" stroke="rgba(201,168,76,0.5)" stroke-width="0.7" transform="rotate(28 181 128)"/><ellipse cx="181" cy="128" rx="46" ry="27" fill="none" stroke="rgba(201,168,76,0.38)" stroke-width="0.7" transform="rotate(28 181 128)"/><ellipse cx="181" cy="128" rx="55" ry="33" fill="none" stroke="rgba(201,168,76,0.26)" stroke-width="0.7" transform="rotate(28 181 128)"/><ellipse cx="201" cy="35" rx="80" ry="18" fill="none" stroke="rgba(201,168,76,0.5)" stroke-width="0.7" transform="rotate(28 201 35)"/><ellipse cx="201" cy="35" rx="100" ry="22" fill="none" stroke="rgba(201,168,76,0.38)" stroke-width="0.7" transform="rotate(28 201 35)"/><ellipse cx="201" cy="35" rx="120" ry="27" fill="none" stroke="rgba(201,168,76,0.26)" stroke-width="0.7" transform="rotate(28 201 35)"/><ellipse cx="51" cy="54" rx="67" ry="41" fill="none" stroke="rgba(201,168,76,0.5)" stroke-width="0.7" transform="rotate(18 51 54)"/><ellipse cx="51" cy="54" rx="83" ry="51" fill="none" stroke="rgba(201,168,76,0.38)" stroke-width="0.7" transform="rotate(18 51 54)"/><ellipse cx="51" cy="54" rx="100" ry="61" fill="none" stroke="rgba(201,168,76,0.26)" stroke-width="0.7" transform="rotate(18 51 54)"/><ellipse cx="178" cy="50" rx="69" ry="50" fill="none" stroke="rgba(201,168,76,0.5)" stroke-width="0.7" transform="rotate(87 178 50)"/><ellipse cx="178" cy="50" rx="86" ry="62" fill="none" stroke="rgba(201,168,76,0.38)" stroke-width="0.7" transform="rotate(87 178 50)"/><ellipse cx="178" cy="50" rx="103" ry="75" fill="none" stroke="rgba(201,168,76,0.26)" stroke-width="0.7" transform="rotate(87 178 50)"/>
</svg>