<svg xmlns="http://www.w3.org/2000/svg" viewBox="0 0 320 180" width="320" height="180">
<rect width="320" height="180" fill="#07070a"/>
<defs>
  <radialGradient id="g4" cx="50%" cy="50%" r="80%"><stop offset="0%" stop-color="rgba(201,168,76,0.12)"/><stop offset="100%" stop-color="rgba(201,168,76,0)"/></radialGradient>
</defs>
<rect width="320" height="180" fill="url(#g4)"/>
<line x1="142" y1="84" x2="141" y2="101" stroke="rgba(201,168,76,0.15)" stroke-width="0.5"/><line x1="142" y1="84" x2="119" y2="85" stroke="rgba(201,168,76,0.15)" stroke-width="0.5"/><line x1="105" y1="69" x2="113" y2="55" stroke="rgba(201,168,76,0.15)" stroke-width="0.5"/><line x1="105" y1="69" x2="100" y2="85" stroke="rgba(201,168,76,0.15)" stroke-width="0.5"/><line x1="85" y1="67" x2="105" y2="69" stroke="rgba(201,168,76,0.15)" stroke-width="0.5"/><line x1="85" y1="67" x2="100" y2="85" stroke="rgba(201,168,76,0.15)" stroke-width="0.5"/><line x1="105" y1="43" x2="113" y2="55" stroke="rgba(201,168,76,0.15)" stroke-width="0.5"/><line x1="105" y1="43" x2="85" y2="31" stroke="rgba(201,168,76,0.15)" stroke-width="0.5"/><line x1="46" y1="146" x2="25" y2="120" stroke="rgba(201,168,76,0.15)" stroke-width="0.5"/><line x1="46" y1="146" x2="74" y2="165" stroke="rgba(201,168,76,0.15)" stroke-width="0.5"/><line x1="119" y1="85" x2="100" y2="85" stroke="rgba(201,168,76,0.15)" stroke-width="0.5"/><line x1="119" y1="85" x2="105" y2="69" stroke="rgba(201,168,76,0.15)" stroke-width="0.5"/><line x1="25" y1="120" x2="46" y2="146" stroke="rgba(201,168,76,0.15)" stroke-width="0.5"/><line x1="25" y1="120" x2="17" y2="80" stroke="rgba(201,168,76,0.15)" stroke-width="0.5"/><line x1="74" y1="165" x2="46" y2="146" stroke="rgba(201,168,76,0.15)" stroke-width="0.5"/><line x1="74" y1="165" x2="79" y2="122" stroke="rgba(201,168,76,0.15)" stroke-width="0.5"/><line x1="17" y1="80" x2="25" y2="120" stroke="rgba(201,168,76,0.15)" stroke-width="0.5"/><line x1="17" y1="80" x2="70" y2="98" stroke="rgba(201,168,76,0.15)" stroke-width="0.5"/><line x1="85" y1="31" x2="105" y2="43" stroke="rgba(201,168,76,0.15)" stroke-width="0.5"/><line x1="85" y1="31" x2="85" y2="67" stroke="rgba(201,168,76,0.15)" stroke-width="0.5"/><line x1="144" y1="125" x2="144" y2="124" stroke="rgba(201,168,76,0.15)" stroke-width="0.5"/><line x1="144" y1="125" x2="129" y2="134" stroke="rgba(201,168,76,0.15)" stroke-width="0.5"/><line x1="233" y1="45" x2="230" y2="90" stroke="rgba(201,168,76,0.15)" stroke-width="0.5"/><line x1="233" y1="45" x2="229" y2="103" stroke="rgba(201,168,76,0.15)" stroke-width="0.5"/><line x1="141" y1="101" x2="142" y2="84" stroke="rgba(201,168,76,0.15)" stroke-width="0.5"/><line x1="141" y1="101" x2="144" y2="124" stroke="rgba(201,168,76,0.15)" stroke-width="0.5"/><line x1="129" y1="134" x2="144" y2="125" stroke="rgba(201,168,76,0.15)" stroke-width="0.5"/><line x1="129" y1="134" x2="144" y2="124" stroke="rgba(201,168,76,0.15)" stroke-width="0.5"/><line x1="291" y1="154" x2="293" y2="166" stroke="rgba(201,168,76,0.15)" stroke-width="0.5"/><line x1="291" y1="154" x2="237" y2="147" stroke="rgba(201,168,76,0.15)" stroke-width="0.5"/><line x1="229" y1="103" x2="230" y2="90" stroke="rgba(201,168,76,0.15)" stroke-width="0.5"/><line x1="229" y1="103" x2="237" y2="147" stroke="rgba(201,168,76,0.15)" stroke-width="0.5"/><line x1="230" y1="90" x2="229" y2="103" stroke="rgba(201,168,76,0.15)" stroke-width="0.5"/><line x1="230" y1="90" x2="233" y2="45" stroke="rgba(201,168,76,0.15)" stroke-width="0.5"/><line x1="70" y1="98" x2="79" y2="122" stroke="rgba(201,168,76,0.15)" stroke-width="0.5"/><line x1="70" y1="98" x2="100" y2="85" stroke="rgba(201,168,76,0.15)" stroke-width="0.5"/><line x1="144" y1="124" x2="144" y2="125" stroke="rgba(201,168,76,0.15)" stroke-width="0.5"/><line x1="144" y1="124" x2="129" y2="134" stroke="rgba(201,168,76,0.15)" stroke-width="0.5"/><line x1="293" y1="166" x2="291" y2="154" stroke="rgba(201,168,76,0.15)" stroke-width="0.5"/><line x1="293" y1="166" x2="237" y2="147" stroke="rgba(201,168,76,0.15)" stroke-width="0.5"/><line x1="79" y1="122" x2="70" y2="98" stroke="rgba(201,168,76,0.15)" stroke-width="0.5"/><line x1="79" y1="122" x2="46" y2="146" stroke="rgba(201,168,76,0.15)" stroke-width="0.5"/><line x1="237" y1="147" x2="229" y2="103" stroke="rgba(201,168,76,0.15)" stroke-width="0.5"/><line x1="237" y1="147" x2="291" y2="154" stroke="rgba(201,168,76,0.15)" stroke-width="0.5"/><line x1="100" y1="85" x2="105" y2="69" stroke="rgba(201,168,76,0.15)" stroke-width="0.5"/><line x1="100" y1="85" x2="119" y2="85" stroke="rgba(201,168,76,0.15)" stroke-width="0.5"/><line x1="113" y1="55" x2="105" y2="43" stroke="rgba(201,168,76,0.15)" stroke-width="0.5"/><line x1="113" y1="55" x2="105" y2="69" stroke="rgba(201,168,76,0.15)" stroke-width="0.5"/><line x1="277" y1="101" x2="229" y2="103" stroke="rgba(201,168,76,0.15)" stroke-width="0.5"/><line x1="277" y1="101" x2="230" y2="90" stroke="rgba(201,168,76,0.15)" stroke-width="0.5"/>
<circle cx="142" cy="84" r="2" fill="rgba(245,241,230,0.585556309146654)"/><circle cx="105" cy="69" r="2" fill="rgba(245,241,230,0.7027493889634933)"/><circle cx="85" cy="67" r="2" fill="rgba(245,241,230,0.8446337153419143)"/><circle cx="105" cy="43" r="2" fill="rgba(245,241,230,0.675013239068713)"/><circle cx="46" cy="146" r="1" fill="rgba(245,241,230,0.8433105930479949)"/><circle cx="119" cy="85" r="2" fill="rgba(245,241,230,0.4655506852018676)"/><circle cx="25" cy="120" r="2" fill="rgba(245,241,230,0.7256158852170629)"/><circle cx="74" cy="165" r="2" fill="rgba(245,241,230,0.5948443800292202)"/><circle cx="17" cy="80" r="2" fill="rgba(245,241,230,0.8664889084827307)"/><circle cx="85" cy="31" r="1" fill="rgba(245,241,230,0.5124523957883773)"/><circle cx="144" cy="125" r="2" fill="rgba(245,241,230,0.8030476387520529)"/><circle cx="233" cy="45" r="2" fill="rgba(245,241,230,0.7195277573678617)"/><circle cx="141" cy="101" r="1" fill="rgba(245,241,230,0.766575793972205)"/><circle cx="129" cy="134" r="2" fill="rgba(245,241,230,0.8430962121485157)"/><circle cx="291" cy="154" r="2" fill="rgba(245,241,230,0.5015291463784622)"/><circle cx="229" cy="103" r="2" fill="rgba(245,241,230,0.6601765681673255)"/><circle cx="230" cy="90" r="1" fill="rgba(245,241,230,0.8507196246508631)"/><circle cx="70" cy="98" r="1" fill="rgba(245,241,230,0.7613571580363239)"/><circle cx="144" cy="124" r="1" fill="rgba(245,241,230,0.8307854757355172)"/><circle cx="293" cy="166" r="1" fill="rgba(245,241,230,0.6904372762955538)"/><circle cx="79" cy="122" r="1" fill="rgba(245,241,230,0.5796755700671122)"/><circle cx="237" cy="147" r="2" fill="rgba(245,241,230,0.4910755146120678)"/><circle cx="100" cy="85" r="1" fill="rgba(245,241,230,0.4822417169340009)"/><circle cx="113" cy="55" r="1" fill="rgba(245,241,230,0.8503089607714021)"/><circle cx="277" cy="101" r="1" fill="rgba(245,241,230,0.4345719621671183)"/>
</svg>