<svg xmlns="http://www.w3.org/2000/svg" viewBox="0 0 320 180" width="320" height="180">
<rect width="320" height="180" fill="#0d0d12"/>
<defs>
  <linearGradient id="g5" x1="0%" y1="0%" x2="100%" y2="100%">
    <stop offset="0%" stop-color="#14141a"/>
    <stop offset="50%" stop-color="#1a1a22"/>
    <stop offset="100%" stop-color="#0d0d12"/>
  </linearGradient>
</defs>
<rect width="320" height="180" fill="url(#g5)"/>
<path d="M 0 103 Q 10 93 20 107 Q 30 92 40 101 Q 50 96 60 100 Q 70 86 80 102 Q 90 105 100 106 Q 110 124 120 106 Q 130 86 140 107 Q 150 112 160 101 Q 170 107 180 107 Q 190 118 200 101 Q 210 104 220 104 Q 230 124 240 101 Q 250 90 260 105 Q 270 123 280 100 Q 290 117 300 103 Q 310 86 320 106 Q 330 124 340 99" fill="none" stroke="rgba(201,168,76,0.29071171428943887)" stroke-width="0.9"/><path d="M 0 68 Q 10 41 20 69 Q 30 54 40 68 Q 50 75 60 64 Q 70 70 80 71 Q 90 53 100 72 Q 110 70 120 63 Q 130 63 140 65 Q 150 54 160 65 Q 170 88 180 70 Q 190 79 200 65 Q 210 73 220 73 Q 230 52 240 63 Q 250 48 260 63 Q 270 51 280 70 Q 290 84 300 69 Q 310 46 320 69 Q 330 81 340 64" fill="none" stroke="rgba(201,168,76,0.19287346670733446)" stroke-width="1.1"/><path d="M 0 97 Q 10 85 20 100 Q 30 102 40 95 Q 50 80 60 102 Q 70 90 80 99 Q 90 93 100 100 Q 110 102 120 94 Q 130 99 140 99 Q 150 80 160 94 Q 170 115 180 94 Q 190 115 200 98 Q 210 84 220 93 Q 230 84 240 94 Q 250 95 260 94 Q 270 88 280 98 Q 290 86 300 95 Q 310 112 320 97 Q 330 108 340 95" fill="none" stroke="rgba(201,168,76,0.4038376255130737)" stroke-width="0.6"/><path d="M 0 92 Q 10 98 20 88 Q 30 93 40 91 Q 50 77 60 96 Q 70 103 80 87 Q 90 87 100 90 Q 110 89 120 93 Q 130 87 140 93 Q 150 89 160 93 Q 170 103 180 92 Q 190 94 200 88 Q 210 82 220 87 Q 230 106 240 92 Q 250 100 260 93 Q 270 101 280 94 Q 290 84 300 91 Q 310 104 320 97 Q 330 84 340 97" fill="none" stroke="rgba(201,168,76,0.3659900269895563)" stroke-width="0.6"/><path d="M 0 176 Q 10 169 20 181 Q 30 171 40 177 Q 50 174 60 178 Q 70 161 80 178 Q 90 182 100 175 Q 110 160 120 179 Q 130 174 140 181 Q 150 176 160 178 Q 170 190 180 173 Q 190 172 200 177 Q 210 174 220 177 Q 230 195 240 173 Q 250 174 260 177 Q 270 194 280 180 Q 290 184 300 174 Q 310 180 320 176 Q 330 168 340 176" fill="none" stroke="rgba(201,168,76,0.15129339620559207)" stroke-width="0.9"/><path d="M 0 75 Q 10 69 20 80 Q 30 75 40 80 Q 50 85 60 73 Q 70 85 80 75 Q 90 84 100 70 Q 110 66 120 78 Q 130 71 140 70 Q 150 78 160 80 Q 170 69 180 78 Q 190 87 200 73 Q 210 75 220 76 Q 230 88 240 78 Q 250 77 260 73 Q 270 60 280 71 Q 290 78 300 71 Q 310 61 320 70 Q 330 85 340 74" fill="none" stroke="rgba(201,168,76,0.2607679411116479)" stroke-width="1.1"/>
</svg>